<?xml version="1.0" encoding="utf-8"?>
<!-- Generator: Adobe Illustrator 16.0.0, SVG Export Plug-In . SVG Version: 6.00 Build 0)  -->
<!DOCTYPE svg PUBLIC "-//W3C//DTD SVG 1.1//EN" "http://www.w3.org/Graphics/SVG/1.1/DTD/svg11.dtd">
<svg version="1.1" id="Capa_1" xmlns="http://www.w3.org/2000/svg" xmlns:xlink="http://www.w3.org/1999/xlink" x="0px" y="0px"
	 width="254.111px" height="26.228px" viewBox="0 0 254.111 26.228" enable-background="new 0 0 254.111 26.228"
	 xml:space="preserve">
<g>
	<g>
		<path fill-rule="evenodd" clip-rule="evenodd" fill="#FFFFFF" d="M193.329,6.764c-0.123-1.218-0.234-2.38-0.852-3.462
			c-0.589-1.031-1.95-1.798-2.589-2.075c-0.638-0.274-1.284-0.474-1.987-0.614c-0.735-0.146-1.467-0.215-2.213-0.28
			c-1.398-0.121-2.782-0.136-4.187-0.136h-8.57c-3.816,0-7.65-0.05-11.42,0.608c-3.656,0.638-7.468,2.454-9.188,5.943h37.592
			l-0.03,0.016H193.329z"/>
	</g>
	<g>
		<g>
			<path fill-rule="evenodd" clip-rule="evenodd" fill="#FFFFFF" d="M243.841,6.748c-0.264-3.185-2.465-6.134-5.603-6.483
				c-2.046-0.227-4.175-0.068-6.226-0.068c-4.368,0-8.735,0-13.104,0c-5.178,0-10.36,0-15.54,0c-0.656,0-1.933-0.328-2.226,0.34
				c-0.896,2.072-1.792,4.141-2.688,6.212c6.412,0,12.824,0,19.237,0C226.408,6.748,235.125,6.748,243.841,6.748z"/>
		</g>
		<g>
			<path fill-rule="evenodd" clip-rule="evenodd" fill="#FFFFFF" d="M56.779,6.748c-0.609-1.229-1.219-2.462-1.827-3.69
				c-0.373-0.757-0.745-1.51-1.119-2.262c-0.103-0.207-0.17-0.6-0.424-0.6c-2.818,0-5.635,0-8.45,0
				c1.08,2.185,2.161,4.369,3.242,6.552C51.06,6.748,53.92,6.748,56.779,6.748z"/>
		</g>
		<g>
			<path fill-rule="evenodd" clip-rule="evenodd" fill="#FFFFFF" d="M191.637,11.348c-2.657,0-6.125,0-8.781,0
				c-0.753,1.702-1.51,3.937-3.003,5.134c-1.668,1.334-3.473,1.567-5.547,1.773c-1.888,0.188-3.86,0.117-5.761,0.117
				c-1.902,0-3.843,0.032-5.736-0.14c-1.702-0.157-4.283-0.14-5.281-1.817c-0.954-1.604,0.43-3.63,1.149-5.067
				c-0.063,0-0.122,0-0.18,0c-2.52,0-5.046,0-7.566,0c-0.3,0-0.597,0-0.896,0c-0.089,0-0.352,0.91-0.417,1.09
				c-0.333,0.956-0.736,1.91-0.967,2.894c-0.469,1.996-0.82,3.859-0.412,5.906c0.401,2.004,2.136,3.164,3.902,3.869
				c1.696,0.677,3.718,0.803,5.521,0.934c1.871,0.133,3.769,0.167,5.642,0.167c4.044,0,8.094-0.074,12.122-0.405
				c3.781-0.311,7.847-1.034,10.5-4.02c1.293-1.452,2.215-3.139,3.126-4.844c0.495-0.925,0.958-1.863,1.404-2.814L191.637,11.348z"
				/>
		</g>
		<g>
			<path fill-rule="evenodd" clip-rule="evenodd" fill="#FFFFFF" d="M197.146,11.348c-0.166,0-0.632-0.087-0.78,0l-6.351,14.859
				h8.234c0.361,0,0.577,0.123,0.683-0.233c0.122-0.439,0.372-0.83,0.54-1.251c0.358-0.889,0.72-1.78,1.148-2.636
				c1.733-3.479,2.859-7.264,4.592-10.739c-0.103,0-0.208,0-0.312,0C202.316,11.348,199.732,11.348,197.146,11.348z"/>
		</g>
		<g>
			<path fill-rule="evenodd" clip-rule="evenodd" fill="#FFFFFF" d="M215.721,11.348c-0.166,0-0.63-0.087-0.783,0l-6.349,14.859
				h8.236c0.361,0,0.576,0.123,0.681-0.233c0.122-0.439,0.369-0.83,0.539-1.251c0.359-0.889,0.723-1.78,1.149-2.636
				c1.736-3.479,2.86-7.264,4.589-10.739c-0.1,0-0.205,0-0.311,0C220.889,11.348,218.303,11.348,215.721,11.348z"/>
		</g>
		<g>
			<path fill-rule="evenodd" clip-rule="evenodd" fill="#FFFFFF" d="M234.293,11.348c-0.167,0-0.63-0.087-0.778,0l-6.351,14.859
				h8.233c0.36,0,0.579,0.123,0.681-0.233c0.125-0.439,0.372-0.83,0.541-1.251c0.357-0.889,0.721-1.78,1.147-2.636
				c1.737-3.479,2.861-7.264,4.593-10.739c-0.102,0-0.207,0-0.309,0C239.461,11.348,236.879,11.348,234.293,11.348z"/>
		</g>
		<g>
			<path fill-rule="evenodd" clip-rule="evenodd" fill="#FFFFFF" d="M73.949,6.735c2.447-2.179,4.897-4.358,7.348-6.539
				c-1.638,0-3.277,0-4.913,0c-1.112,0-2.223,0-3.334,0c-0.211,0-1.058-0.133-1.223,0.014c-2.448,2.178-4.898,4.357-7.348,6.538
				c1.637,0,3.276,0,4.912,0c1.113,0,2.224,0,3.337,0C72.937,6.748,73.782,6.884,73.949,6.735z"/>
		</g>
		<g>
			<path fill-rule="evenodd" clip-rule="evenodd" fill="#FFFFFF" d="M52.488,13.448c0.135,0.293,0.44,0.643,0.307,0.961
				c-0.504,1.209-1.013,2.417-1.518,3.627c-1.136,2.723-2.275,5.449-3.414,8.171c0.453,0,0.908,0,1.365,0c2.549,0,5.101,0,7.647,0
				c0.381,0,0.539-0.851,0.67-1.155c0.539-1.248,1.075-2.499,1.614-3.751c0.575-1.332,1.146-2.667,1.722-3.999
				c0.188-0.438,0.403-1.441,0.767-1.771c1.55-1.394,3.103-2.789,4.655-4.183c-4.933,0-9.864,0-14.794,0
				C51.836,12.052,52.16,12.749,52.488,13.448z"/>
		</g>
		<g>
			<path fill-rule="evenodd" clip-rule="evenodd" fill="#FFFFFF" d="M124.997,18.372c-1.19,0-3.583,0.588-4.24-0.733
				c-0.869-1.739,0.486-3.868,1.176-5.481c0.136-0.27,0.27-0.537,0.406-0.81c-1.894-0.013-3.788-0.027-5.68-0.04
				c-1.033-0.009-2.066-0.016-3.098-0.024c-0.11,0-0.449-0.063-0.545-0.003c-0.193,0.124-0.404,0.967-0.489,1.165
				c-0.72,1.685-1.128,3.61-1.454,5.41c-0.34,1.856-0.298,4.012,0.698,5.667c1.792,2.984,5.753,2.685,8.795,2.685
				c5.513,0,11.026,0,16.536,0c0.592,0,1.181,0,1.773,0c0.252,0,0.614-1.249,0.704-1.455c0.918-2.126,1.831-4.252,2.75-6.38
				c-0.549,0-1.097,0-1.648,0C135.452,18.372,130.224,18.372,124.997,18.372z"/>
		</g>
		<g>
			<path fill-rule="evenodd" clip-rule="evenodd" fill="#FFFFFF" d="M136.653,0.196c-2.733,0-5.466,0-8.201,0
				c-1.281,0-2.541-0.027-3.809,0.112c-3.419,0.378-7.072,2.249-8.658,5.426c-0.233,0.35-0.422,0.707-0.609,1.083
				c3.989-0.029,7.979-0.069,11.963-0.069c5.625,0,11.253,0,16.875,0c0.855,0,1.709,0,2.561,0c0.423,0,0.568,0.114,0.732-0.271
				c0.884-2.094,1.771-4.187,2.655-6.281C145.656,0.196,141.156,0.196,136.653,0.196z"/>
		</g>
		<g>
			<path fill-rule="evenodd" clip-rule="evenodd" fill="#FFFFFF" d="M105.31,11.348c-8.395,0-16.791,0-25.187,0
				c0.625,1.424,3.077,1.789,4.406,1.962c4.214,0.545,8.425,1.145,12.647,1.615c1.097,0.123,2.368,0.549,2.638,1.27
				c0.268,0.646-0.208,1.117-0.374,1.3c-0.297,0.325-0.951,0.494-1.368,0.599c-1.37,0.34-2.674,0.279-4.074,0.279
				c-5.51,0-11.012,0-16.518,0c-0.602,0-1.203,0-1.805,0c-0.252,0-0.613,1.244-0.707,1.455c-0.915,2.127-1.831,4.256-2.749,6.38
				c7.767,0,15.532,0,23.295,0c3.567,0,7.653-1.144,10.005-3.985c1.221-1.475,1.602-3.391,2.003-5.211
				c0.383-1.709,0.391-4.059-0.99-5.26C106.162,11.431,105.789,11.348,105.31,11.348z"/>
		</g>
		<g>
			<path fill-rule="evenodd" clip-rule="evenodd" fill="#FFFFFF" d="M34.248,11.751c-0.29-0.374-0.794-0.403-1.227-0.403
				c-8.394,0-16.791,0-25.184,0c1.247,1.288,2.678,1.738,4.451,1.966c4.221,0.547,8.501,0.934,12.701,1.615
				c1.137,0.183,2.572,0.734,2.677,1.328c0.105,0.593-0.241,1.045-0.482,1.258c-0.24,0.211-0.893,0.465-1.442,0.592
				c-1.358,0.312-2.636,0.266-4.028,0.266c-5.486,0-10.974,0-16.458,0c-0.6,0-1.201,0-1.799,0c-0.252,0-0.614,1.244-0.707,1.455
				c-0.915,2.127-1.834,4.256-2.75,6.38c7.729,0,15.458,0,23.187,0c1.751,0,3.565-0.354,5.25-0.808
				c1.809-0.488,3.511-1.824,4.812-3.123c1.227-1.229,1.849-3.592,2.033-5.266C35.457,15.442,35.796,12.784,34.248,11.751z"/>
		</g>
		<g>
			<path fill-rule="evenodd" clip-rule="evenodd" fill="#FFFFFF" d="M107.114,0.196c-5.097,0-10.195,0-15.29,0
				c-1.444,0-3.113,0.316-4.437,0.883c-0.854,0.364-1.661,0.854-2.376,1.45c-0.671,0.559-1.605,1.17-2.051,1.923
				c-0.457,0.818-1.209,1.438-1.486,2.365c3.034-0.009,6.072-0.013,9.106-0.022c5.617-0.015,11.234-0.026,16.851-0.041
				c0.697-0.001,1.394-0.002,2.094-0.005c0.429-0.001,0.426,0.061,0.6-0.34c0.895-2.072,1.793-4.141,2.69-6.213
				C110.913,0.196,109.014,0.196,107.114,0.196z"/>
		</g>
		<g>
			<path fill-rule="evenodd" clip-rule="evenodd" fill="#FFFFFF" d="M19.482,0.196c-1.536,0-3.133,0.405-4.568,0.941
				c-1.69,0.635-3.248,1.898-4.309,3.314c-0.515,0.688-1.17,1.465-1.418,2.296c3.036,0,6.07,0,9.106,0c5.617,0,11.232,0,16.85,0
				c0.699,0,1.397,0,2.095,0c0.427,0,0.424,0.062,0.599-0.339c0.895-2.072,1.793-4.141,2.689-6.213c-1.958,0-3.913,0-5.871,0
				C29.601,0.196,24.543,0.196,19.482,0.196z"/>
		</g>
	</g>
	<path fill="#FFFFFF" d="M250.805,0c1.841,0,3.307,1.497,3.307,3.366c0,1.9-1.466,3.382-3.321,3.382
		c-1.841,0-3.338-1.481-3.338-3.382c0-1.869,1.497-3.366,3.338-3.366H250.805z M250.79,0.526c-1.481,0-2.694,1.271-2.694,2.84
		c0,1.602,1.213,2.859,2.709,2.859c1.496,0.014,2.692-1.258,2.692-2.842c0-1.586-1.196-2.857-2.692-2.857H250.79z M250.161,5.327
		h-0.6V1.573c0.313-0.047,0.614-0.092,1.063-0.092c0.568,0,0.941,0.12,1.167,0.285c0.224,0.166,0.344,0.419,0.344,0.778
		c0,0.493-0.33,0.794-0.731,0.911v0.03c0.326,0.06,0.551,0.359,0.627,0.913c0.088,0.582,0.18,0.809,0.239,0.928h-0.628
		c-0.09-0.119-0.18-0.463-0.256-0.957c-0.088-0.479-0.327-0.66-0.808-0.66h-0.418V5.327z M250.161,3.247h0.434
		c0.492,0,0.915-0.18,0.915-0.643c0-0.33-0.241-0.658-0.915-0.658c-0.195,0-0.329,0.014-0.434,0.03V3.247z"/>
</g>
</svg>
